<svg width="200" height="200" viewBox="0 0 200 200" fill="none" xmlns="http://www.w3.org/2000/svg">
<rect width="200" height="200" fill="none"/>
<path d="M171.893 94.1186H138.986L190.256 128.51C193.084 119.51 194.617 109.944 194.617 100C194.617 47.5398 152.163 5 99.8083 5C89.7193 5 80.031 6.60617 70.9085 9.53506L171.893 94.1186Z" fill="#801E33"/>
<path d="M99.8083 137.296V119.794H145.657L82.5769 76.4509H124.889L70.885 31.6908V9.53516C32.674 21.794 5 57.6493 5 100C5 142.705 33.1219 178.797 71.8043 190.772V119.794H88.8236V194.315C92.4302 194.74 96.0839 195 99.8083 195C138.962 195 172.553 171.215 187.026 137.296C187.026 137.296 99.8083 137.296 99.8083 137.296ZM28.3131 72.0339H21.5714V65.2786H28.3131V72.0339ZM42.6923 114.975H31.4718V103.732H42.6923V114.975ZM53.9128 92.489H38.9679V77.5138H53.9128V92.489ZM55.5864 62.4206H46.4403V53.256H55.5864V45.6267H63.2003V53.256H55.5864V62.4206ZM70.885 119.794H55.94V105.102H70.885V119.794Z" fill="#801E33"/>
</svg>
